  <svg width="801" height="310" viewBox="0 0 801 310" fill="none" xmlns="http://www.w3.org/2000/svg">
<rect width="801" height="310" rx="8" fill="white"/>
<path d="M294.584 122.714C295.228 121.594 296.138 120.726 297.314 120.11C298.49 119.466 299.876 119.144 301.472 119.144C303.348 119.144 305.042 119.634 306.554 120.614C308.094 121.594 309.298 122.994 310.166 124.814C311.062 126.634 311.51 128.762 311.51 131.198C311.51 133.634 311.062 135.776 310.166 137.624C309.298 139.444 308.094 140.844 306.554 141.824C305.042 142.804 303.348 143.294 301.472 143.294C299.876 143.294 298.49 142.986 297.314 142.37C296.138 141.726 295.228 140.844 294.584 139.724V143H286.352V111.92H294.584V122.714ZM303.152 131.198C303.152 129.658 302.732 128.468 301.892 127.628C301.08 126.76 300.072 126.326 298.868 126.326C297.664 126.326 296.642 126.76 295.802 127.628C294.99 128.496 294.584 129.686 294.584 131.198C294.584 132.738 294.99 133.942 295.802 134.81C296.642 135.678 297.664 136.112 298.868 136.112C300.072 136.112 301.08 135.678 301.892 134.81C302.732 133.914 303.152 132.71 303.152 131.198ZM323.677 143.294C321.549 143.294 319.645 142.944 317.965 142.244C316.313 141.516 314.997 140.536 314.017 139.304C313.065 138.044 312.533 136.63 312.421 135.062H320.401C320.513 135.818 320.863 136.406 321.451 136.826C322.039 137.246 322.767 137.456 323.635 137.456C324.307 137.456 324.839 137.316 325.231 137.036C325.623 136.756 325.819 136.392 325.819 135.944C325.819 135.356 325.497 134.922 324.853 134.642C324.209 134.362 323.145 134.054 321.661 133.718C319.981 133.382 318.581 133.004 317.461 132.584C316.341 132.164 315.361 131.478 314.521 130.526C313.709 129.574 313.303 128.286 313.303 126.662C313.303 125.262 313.681 124.002 314.437 122.882C315.193 121.734 316.299 120.824 317.755 120.152C319.239 119.48 321.017 119.144 323.089 119.144C326.169 119.144 328.591 119.9 330.355 121.412C332.119 122.924 333.141 124.912 333.421 127.376H325.987C325.847 126.62 325.511 126.046 324.979 125.654C324.475 125.234 323.789 125.024 322.921 125.024C322.249 125.024 321.731 125.15 321.367 125.402C321.031 125.654 320.863 126.004 320.863 126.452C320.863 127.012 321.185 127.446 321.829 127.754C322.473 128.034 323.509 128.328 324.937 128.636C326.645 129 328.059 129.406 329.179 129.854C330.327 130.302 331.321 131.03 332.161 132.038C333.029 133.018 333.463 134.362 333.463 136.07C333.463 137.442 333.057 138.674 332.245 139.766C331.461 140.858 330.327 141.726 328.843 142.37C327.387 142.986 325.665 143.294 323.677 143.294ZM354.436 125.024V131.87H335.41V125.024H354.436ZM373.173 135.986V143H369.603C363.583 143 360.573 140.018 360.573 134.054V126.284H357.675V119.438H360.573V113.726H368.847V119.438H373.131V126.284H368.847V134.18C368.847 134.824 368.987 135.286 369.267 135.566C369.575 135.846 370.079 135.986 370.779 135.986H373.173ZM386.651 143.294C384.299 143.294 382.185 142.804 380.309 141.824C378.461 140.844 377.005 139.444 375.941 137.624C374.877 135.804 374.345 133.662 374.345 131.198C374.345 128.762 374.877 126.634 375.941 124.814C377.033 122.994 378.503 121.594 380.351 120.614C382.227 119.634 384.341 119.144 386.693 119.144C389.045 119.144 391.145 119.634 392.993 120.614C394.869 121.594 396.339 122.994 397.403 124.814C398.495 126.634 399.041 128.762 399.041 131.198C399.041 133.634 398.495 135.776 397.403 137.624C396.339 139.444 394.869 140.844 392.993 141.824C391.117 142.804 389.003 143.294 386.651 143.294ZM386.651 136.154C387.799 136.154 388.751 135.734 389.507 134.894C390.291 134.026 390.683 132.794 390.683 131.198C390.683 129.602 390.291 128.384 389.507 127.544C388.751 126.704 387.813 126.284 386.693 126.284C385.573 126.284 384.635 126.704 383.879 127.544C383.123 128.384 382.745 129.602 382.745 131.198C382.745 132.822 383.109 134.054 383.837 134.894C384.565 135.734 385.503 136.154 386.651 136.154ZM399.786 131.198C399.786 128.762 400.22 126.634 401.088 124.814C401.984 122.994 403.188 121.594 404.7 120.614C406.24 119.634 407.948 119.144 409.824 119.144C411.448 119.144 412.848 119.466 414.024 120.11C415.2 120.754 416.11 121.622 416.754 122.714V119.438H424.986V143H416.754V139.724C416.11 140.816 415.186 141.684 413.982 142.328C412.806 142.972 411.42 143.294 409.824 143.294C407.948 143.294 406.24 142.804 404.7 141.824C403.188 140.844 401.984 139.444 401.088 137.624C400.22 135.776 399.786 133.634 399.786 131.198ZM416.754 131.198C416.754 129.686 416.334 128.496 415.494 127.628C414.682 126.76 413.674 126.326 412.47 126.326C411.238 126.326 410.216 126.76 409.404 127.628C408.592 128.468 408.186 129.658 408.186 131.198C408.186 132.71 408.592 133.914 409.404 134.81C410.216 135.678 411.238 136.112 412.47 136.112C413.674 136.112 414.682 135.678 415.494 134.81C416.334 133.942 416.754 132.738 416.754 131.198ZM438.455 143.294C436.327 143.294 434.423 142.944 432.743 142.244C431.091 141.516 429.775 140.536 428.795 139.304C427.843 138.044 427.311 136.63 427.199 135.062H435.179C435.291 135.818 435.641 136.406 436.229 136.826C436.817 137.246 437.545 137.456 438.413 137.456C439.085 137.456 439.617 137.316 440.009 137.036C440.401 136.756 440.597 136.392 440.597 135.944C440.597 135.356 440.275 134.922 439.631 134.642C438.987 134.362 437.923 134.054 436.439 133.718C434.759 133.382 433.359 133.004 432.239 132.584C431.119 132.164 430.139 131.478 429.299 130.526C428.487 129.574 428.081 128.286 428.081 126.662C428.081 125.262 428.459 124.002 429.215 122.882C429.971 121.734 431.077 120.824 432.533 120.152C434.017 119.48 435.795 119.144 437.867 119.144C440.947 119.144 443.369 119.9 445.133 121.412C446.897 122.924 447.919 124.912 448.199 127.376H440.765C440.625 126.62 440.289 126.046 439.757 125.654C439.253 125.234 438.567 125.024 437.699 125.024C437.027 125.024 436.509 125.15 436.145 125.402C435.809 125.654 435.641 126.004 435.641 126.452C435.641 127.012 435.963 127.446 436.607 127.754C437.251 128.034 438.287 128.328 439.715 128.636C441.423 129 442.837 129.406 443.957 129.854C445.105 130.302 446.099 131.03 446.939 132.038C447.807 133.018 448.241 134.362 448.241 136.07C448.241 137.442 447.835 138.674 447.023 139.766C446.239 140.858 445.105 141.726 443.621 142.37C442.165 142.986 440.443 143.294 438.455 143.294ZM464.93 135.986V143H461.36C455.34 143 452.33 140.018 452.33 134.054V126.284H449.432V119.438H452.33V113.726H460.604V119.438H464.888V126.284H460.604V134.18C460.604 134.824 460.744 135.286 461.024 135.566C461.332 135.846 461.836 135.986 462.536 135.986H464.93ZM471.604 117.254C470.148 117.254 468.972 116.862 468.076 116.078C467.208 115.266 466.774 114.258 466.774 113.054C466.774 111.822 467.208 110.8 468.076 109.988C468.972 109.176 470.148 108.77 471.604 108.77C473.032 108.77 474.18 109.176 475.048 109.988C475.944 110.8 476.392 111.822 476.392 113.054C476.392 114.258 475.944 115.266 475.048 116.078C474.18 116.862 473.032 117.254 471.604 117.254ZM475.678 119.438V143H467.446V119.438H475.678ZM491.832 126.284H488.136V143H479.862V126.284H477.3V119.438H479.862V119.228C479.862 116.204 480.744 113.894 482.508 112.298C484.3 110.674 486.862 109.862 490.194 109.862C490.866 109.862 491.384 109.876 491.748 109.904V116.918C491.524 116.89 491.216 116.876 490.824 116.876C489.928 116.876 489.27 117.086 488.85 117.506C488.43 117.898 488.192 118.542 488.136 119.438H491.832V126.284ZM518.882 119.438L503.93 154.214H494.984L500.612 141.992L490.952 119.438H500.108L505.064 132.794L509.852 119.438H518.882Z" fill="#DD1350"/>
<path d="M159.728 201L154.8 192.296H152.688V201H148.208V178.664H156.592C158.32 178.664 159.792 178.973 161.008 179.592C162.224 180.189 163.131 181.011 163.728 182.056C164.347 183.08 164.656 184.232 164.656 185.512C164.656 186.984 164.229 188.317 163.376 189.512C162.523 190.685 161.253 191.496 159.568 191.944L164.912 201H159.728ZM152.688 188.936H156.432C157.648 188.936 158.555 188.648 159.152 188.072C159.749 187.475 160.048 186.653 160.048 185.608C160.048 184.584 159.749 183.795 159.152 183.24C158.555 182.664 157.648 182.376 156.432 182.376H152.688V188.936ZM183.908 191.752C183.908 192.392 183.865 192.968 183.78 193.48H170.82C170.927 194.76 171.375 195.763 172.164 196.488C172.953 197.213 173.924 197.576 175.076 197.576C176.74 197.576 177.924 196.861 178.628 195.432H183.46C182.948 197.139 181.967 198.547 180.516 199.656C179.065 200.744 177.284 201.288 175.172 201.288C173.465 201.288 171.929 200.915 170.564 200.168C169.22 199.4 168.164 198.323 167.396 196.936C166.649 195.549 166.276 193.949 166.276 192.136C166.276 190.301 166.649 188.691 167.396 187.304C168.143 185.917 169.188 184.851 170.532 184.104C171.876 183.357 173.423 182.984 175.172 182.984C176.857 182.984 178.361 183.347 179.684 184.072C181.028 184.797 182.063 185.832 182.788 187.176C183.535 188.499 183.908 190.024 183.908 191.752ZM179.268 190.472C179.247 189.32 178.831 188.403 178.02 187.72C177.209 187.016 176.217 186.664 175.044 186.664C173.935 186.664 172.996 187.005 172.228 187.688C171.481 188.349 171.023 189.277 170.852 190.472H179.268ZM193.61 201.224C192.053 201.224 190.645 200.957 189.386 200.424C188.149 199.891 187.167 199.123 186.442 198.12C185.717 197.117 185.343 195.933 185.322 194.568H190.122C190.186 195.485 190.506 196.211 191.082 196.744C191.679 197.277 192.49 197.544 193.514 197.544C194.559 197.544 195.381 197.299 195.978 196.808C196.575 196.296 196.874 195.635 196.874 194.824C196.874 194.163 196.671 193.619 196.266 193.192C195.861 192.765 195.349 192.435 194.73 192.2C194.133 191.944 193.301 191.667 192.234 191.368C190.783 190.941 189.599 190.525 188.682 190.12C187.786 189.693 187.007 189.064 186.346 188.232C185.706 187.379 185.386 186.248 185.386 184.84C185.386 183.517 185.717 182.365 186.378 181.384C187.039 180.403 187.967 179.656 189.162 179.144C190.357 178.611 191.722 178.344 193.258 178.344C195.562 178.344 197.429 178.909 198.858 180.04C200.309 181.149 201.109 182.707 201.258 184.712H196.33C196.287 183.944 195.957 183.315 195.338 182.824C194.741 182.312 193.941 182.056 192.938 182.056C192.063 182.056 191.359 182.28 190.826 182.728C190.314 183.176 190.058 183.827 190.058 184.68C190.058 185.277 190.25 185.779 190.634 186.184C191.039 186.568 191.53 186.888 192.106 187.144C192.703 187.379 193.535 187.656 194.602 187.976C196.053 188.403 197.237 188.829 198.154 189.256C199.071 189.683 199.861 190.323 200.522 191.176C201.183 192.029 201.514 193.149 201.514 194.536C201.514 195.731 201.205 196.84 200.586 197.864C199.967 198.888 199.061 199.709 197.866 200.328C196.671 200.925 195.253 201.224 193.61 201.224ZM202.966 192.136C202.966 190.301 203.339 188.701 204.086 187.336C204.833 185.949 205.867 184.883 207.19 184.136C208.513 183.368 210.027 182.984 211.734 182.984C213.931 182.984 215.745 183.539 217.174 184.648C218.625 185.736 219.595 187.272 220.086 189.256H215.254C214.998 188.488 214.561 187.891 213.942 187.464C213.345 187.016 212.598 186.792 211.702 186.792C210.422 186.792 209.409 187.261 208.662 188.2C207.915 189.117 207.542 190.429 207.542 192.136C207.542 193.821 207.915 195.133 208.662 196.072C209.409 196.989 210.422 197.448 211.702 197.448C213.515 197.448 214.699 196.637 215.254 195.016H220.086C219.595 196.936 218.625 198.461 217.174 199.592C215.723 200.723 213.91 201.288 211.734 201.288C210.027 201.288 208.513 200.915 207.19 200.168C205.867 199.4 204.833 198.333 204.086 196.968C203.339 195.581 202.966 193.971 202.966 192.136ZM226.568 186.024C227.144 185.085 227.891 184.349 228.808 183.816C229.747 183.283 230.813 183.016 232.008 183.016V187.72H230.824C229.416 187.72 228.349 188.051 227.624 188.712C226.92 189.373 226.568 190.525 226.568 192.168V201H222.088V183.272H226.568V186.024ZM236.017 181.16C235.228 181.16 234.567 180.915 234.033 180.424C233.521 179.912 233.265 179.283 233.265 178.536C233.265 177.789 233.521 177.171 234.033 176.68C234.567 176.168 235.228 175.912 236.017 175.912C236.807 175.912 237.457 176.168 237.969 176.68C238.503 177.171 238.769 177.789 238.769 178.536C238.769 179.283 238.503 179.912 237.969 180.424C237.457 180.915 236.807 181.16 236.017 181.16ZM238.225 183.272V201H233.745V183.272H238.225ZM245.852 185.832C246.428 185.021 247.217 184.349 248.22 183.816C249.244 183.261 250.406 182.984 251.708 182.984C253.222 182.984 254.588 183.357 255.804 184.104C257.041 184.851 258.012 185.917 258.716 187.304C259.441 188.669 259.804 190.259 259.804 192.072C259.804 193.885 259.441 195.496 258.716 196.904C258.012 198.291 257.041 199.368 255.804 200.136C254.588 200.904 253.222 201.288 251.708 201.288C250.406 201.288 249.254 201.021 248.252 200.488C247.27 199.955 246.47 199.283 245.852 198.472V209.448H241.372V183.272H245.852V185.832ZM255.228 192.072C255.228 191.005 255.004 190.088 254.556 189.32C254.129 188.531 253.553 187.933 252.828 187.528C252.124 187.123 251.356 186.92 250.524 186.92C249.713 186.92 248.945 187.133 248.22 187.56C247.516 187.965 246.94 188.563 246.492 189.352C246.065 190.141 245.852 191.069 245.852 192.136C245.852 193.203 246.065 194.131 246.492 194.92C246.94 195.709 247.516 196.317 248.22 196.744C248.945 197.149 249.713 197.352 250.524 197.352C251.356 197.352 252.124 197.139 252.828 196.712C253.553 196.285 254.129 195.677 254.556 194.888C255.004 194.099 255.228 193.16 255.228 192.072ZM266.995 186.952V195.528C266.995 196.125 267.134 196.563 267.411 196.84C267.71 197.096 268.201 197.224 268.883 197.224H270.963V201H268.147C264.371 201 262.483 199.165 262.483 195.496V186.952H260.371V183.272H262.483V178.888H266.995V183.272H270.963V186.952H266.995ZM283.73 185.864C284.306 185.011 285.096 184.317 286.098 183.784C287.122 183.251 288.285 182.984 289.586 182.984C291.101 182.984 292.466 183.357 293.682 184.104C294.92 184.851 295.89 185.917 296.594 187.304C297.32 188.669 297.682 190.259 297.682 192.072C297.682 193.885 297.32 195.496 296.594 196.904C295.89 198.291 294.92 199.368 293.682 200.136C292.466 200.904 291.101 201.288 289.586 201.288C288.264 201.288 287.101 201.032 286.098 200.52C285.117 199.987 284.328 199.304 283.73 198.472V201H279.25V177.32H283.73V185.864ZM293.106 192.072C293.106 191.005 292.882 190.088 292.434 189.32C292.008 188.531 291.432 187.933 290.706 187.528C290.002 187.123 289.234 186.92 288.402 186.92C287.592 186.92 286.824 187.133 286.098 187.56C285.394 187.965 284.818 188.563 284.37 189.352C283.944 190.141 283.73 191.069 283.73 192.136C283.73 193.203 283.944 194.131 284.37 194.92C284.818 195.709 285.394 196.317 286.098 196.744C286.824 197.149 287.592 197.352 288.402 197.352C289.234 197.352 290.002 197.139 290.706 196.712C291.432 196.285 292.008 195.677 292.434 194.888C292.882 194.099 293.106 193.16 293.106 192.072ZM301.93 181.16C301.141 181.16 300.479 180.915 299.946 180.424C299.434 179.912 299.178 179.283 299.178 178.536C299.178 177.789 299.434 177.171 299.946 176.68C300.479 176.168 301.141 175.912 301.93 175.912C302.719 175.912 303.37 176.168 303.882 176.68C304.415 177.171 304.682 177.789 304.682 178.536C304.682 179.283 304.415 179.912 303.882 180.424C303.37 180.915 302.719 181.16 301.93 181.16ZM304.138 183.272V201H299.658V183.272H304.138ZM317.108 183.016C319.22 183.016 320.927 183.688 322.228 185.032C323.53 186.355 324.18 188.211 324.18 190.6V201H319.7V191.208C319.7 189.8 319.348 188.723 318.644 187.976C317.94 187.208 316.98 186.824 315.764 186.824C314.527 186.824 313.546 187.208 312.82 187.976C312.116 188.723 311.764 189.8 311.764 191.208V201H307.284V183.272H311.764V185.48C312.362 184.712 313.119 184.115 314.036 183.688C314.975 183.24 315.999 183.016 317.108 183.016ZM326.008 192.072C326.008 190.28 326.36 188.691 327.064 187.304C327.79 185.917 328.771 184.851 330.008 184.104C331.246 183.357 332.622 182.984 334.136 182.984C335.288 182.984 336.387 183.24 337.432 183.752C338.478 184.243 339.31 184.904 339.929 185.736V177.32H344.472V201H339.929V198.376C339.374 199.251 338.595 199.955 337.592 200.488C336.59 201.021 335.427 201.288 334.104 201.288C332.611 201.288 331.246 200.904 330.008 200.136C328.771 199.368 327.79 198.291 327.064 196.904C326.36 195.496 326.008 193.885 326.008 192.072ZM339.96 192.136C339.96 191.048 339.747 190.12 339.321 189.352C338.894 188.563 338.318 187.965 337.592 187.56C336.867 187.133 336.089 186.92 335.257 186.92C334.425 186.92 333.656 187.123 332.952 187.528C332.248 187.933 331.672 188.531 331.224 189.32C330.798 190.088 330.584 191.005 330.584 192.072C330.584 193.139 330.798 194.077 331.224 194.888C331.672 195.677 332.248 196.285 332.952 196.712C333.678 197.139 334.446 197.352 335.257 197.352C336.089 197.352 336.867 197.149 337.592 196.744C338.318 196.317 338.894 195.72 339.321 194.952C339.747 194.163 339.96 193.224 339.96 192.136ZM349.84 181.16C349.051 181.16 348.389 180.915 347.856 180.424C347.344 179.912 347.088 179.283 347.088 178.536C347.088 177.789 347.344 177.171 347.856 176.68C348.389 176.168 349.051 175.912 349.84 175.912C350.629 175.912 351.28 176.168 351.792 176.68C352.325 177.171 352.592 177.789 352.592 178.536C352.592 179.283 352.325 179.912 351.792 180.424C351.28 180.915 350.629 181.16 349.84 181.16ZM352.048 183.272V201H347.568V183.272H352.048ZM365.018 183.016C367.13 183.016 368.837 183.688 370.138 185.032C371.44 186.355 372.09 188.211 372.09 190.6V201H367.61V191.208C367.61 189.8 367.258 188.723 366.554 187.976C365.85 187.208 364.89 186.824 363.674 186.824C362.437 186.824 361.456 187.208 360.73 187.976C360.026 188.723 359.674 189.8 359.674 191.208V201H355.194V183.272H359.674V185.48C360.272 184.712 361.029 184.115 361.946 183.688C362.885 183.24 363.909 183.016 365.018 183.016ZM382.015 182.984C383.337 182.984 384.5 183.251 385.503 183.784C386.505 184.296 387.295 184.968 387.871 185.8V183.272H392.383V201.128C392.383 202.771 392.052 204.232 391.391 205.512C390.729 206.813 389.737 207.837 388.415 208.584C387.092 209.352 385.492 209.736 383.615 209.736C381.097 209.736 379.028 209.149 377.407 207.976C375.807 206.803 374.9 205.203 374.687 203.176H379.135C379.369 203.987 379.871 204.627 380.639 205.096C381.428 205.587 382.377 205.832 383.487 205.832C384.788 205.832 385.844 205.437 386.655 204.648C387.465 203.88 387.871 202.707 387.871 201.128V198.376C387.295 199.208 386.495 199.901 385.471 200.456C384.468 201.011 383.316 201.288 382.015 201.288C380.521 201.288 379.156 200.904 377.919 200.136C376.681 199.368 375.7 198.291 374.975 196.904C374.271 195.496 373.919 193.885 373.919 192.072C373.919 190.28 374.271 188.691 374.975 187.304C375.7 185.917 376.671 184.851 377.887 184.104C379.124 183.357 380.5 182.984 382.015 182.984ZM387.871 192.136C387.871 191.048 387.657 190.12 387.231 189.352C386.804 188.563 386.228 187.965 385.503 187.56C384.777 187.133 383.999 186.92 383.167 186.92C382.335 186.92 381.567 187.123 380.863 187.528C380.159 187.933 379.583 188.531 379.135 189.32C378.708 190.088 378.495 191.005 378.495 192.072C378.495 193.139 378.708 194.077 379.135 194.888C379.583 195.677 380.159 196.285 380.863 196.712C381.588 197.139 382.356 197.352 383.167 197.352C383.999 197.352 384.777 197.149 385.503 196.744C386.228 196.317 386.804 195.72 387.231 194.952C387.657 194.163 387.871 193.224 387.871 192.136ZM402.262 201.288C400.811 201.288 399.51 201.032 398.358 200.52C397.206 199.987 396.289 199.272 395.606 198.376C394.945 197.48 394.582 196.488 394.518 195.4H399.03C399.115 196.083 399.446 196.648 400.022 197.096C400.619 197.544 401.355 197.768 402.23 197.768C403.083 197.768 403.745 197.597 404.214 197.256C404.705 196.915 404.95 196.477 404.95 195.944C404.95 195.368 404.651 194.941 404.054 194.664C403.478 194.365 402.55 194.045 401.27 193.704C399.947 193.384 398.859 193.053 398.006 192.712C397.174 192.371 396.449 191.848 395.83 191.144C395.233 190.44 394.934 189.491 394.934 188.296C394.934 187.315 395.211 186.419 395.766 185.608C396.342 184.797 397.153 184.157 398.198 183.688C399.265 183.219 400.513 182.984 401.942 182.984C404.054 182.984 405.739 183.517 406.998 184.584C408.257 185.629 408.95 187.048 409.078 188.84H404.79C404.726 188.136 404.427 187.581 403.894 187.176C403.382 186.749 402.689 186.536 401.814 186.536C401.003 186.536 400.374 186.685 399.926 186.984C399.499 187.283 399.286 187.699 399.286 188.232C399.286 188.829 399.585 189.288 400.182 189.608C400.779 189.907 401.707 190.216 402.966 190.536C404.246 190.856 405.302 191.187 406.134 191.528C406.966 191.869 407.681 192.403 408.278 193.128C408.897 193.832 409.217 194.771 409.238 195.944C409.238 196.968 408.95 197.885 408.374 198.696C407.819 199.507 407.009 200.147 405.942 200.616C404.897 201.064 403.67 201.288 402.262 201.288ZM426.108 186.952H423.004V201H418.46V186.952H416.444V183.272H418.46V182.376C418.46 180.2 419.079 178.6 420.316 177.576C421.554 176.552 423.42 176.072 425.916 176.136V179.912C424.828 179.891 424.071 180.072 423.644 180.456C423.218 180.84 423.004 181.533 423.004 182.536V183.272H426.108V186.952ZM435.604 201.288C433.897 201.288 432.361 200.915 430.996 200.168C429.63 199.4 428.553 198.323 427.764 196.936C426.996 195.549 426.612 193.949 426.612 192.136C426.612 190.323 427.006 188.723 427.796 187.336C428.606 185.949 429.705 184.883 431.092 184.136C432.478 183.368 434.025 182.984 435.732 182.984C437.438 182.984 438.985 183.368 440.372 184.136C441.758 184.883 442.846 185.949 443.636 187.336C444.446 188.723 444.852 190.323 444.852 192.136C444.852 193.949 444.436 195.549 443.604 196.936C442.793 198.323 441.684 199.4 440.276 200.168C438.889 200.915 437.332 201.288 435.604 201.288ZM435.604 197.384C436.414 197.384 437.172 197.192 437.876 196.808C438.601 196.403 439.177 195.805 439.604 195.016C440.03 194.227 440.244 193.267 440.244 192.136C440.244 190.451 439.796 189.16 438.9 188.264C438.025 187.347 436.948 186.888 435.668 186.888C434.388 186.888 433.31 187.347 432.436 188.264C431.582 189.16 431.156 190.451 431.156 192.136C431.156 193.821 431.572 195.123 432.404 196.04C433.257 196.936 434.324 197.384 435.604 197.384ZM451.338 186.024C451.914 185.085 452.661 184.349 453.578 183.816C454.517 183.283 455.583 183.016 456.778 183.016V187.72H455.594C454.186 187.72 453.119 188.051 452.394 188.712C451.69 189.373 451.338 190.525 451.338 192.168V201H446.858V183.272H451.338V186.024ZM469.34 186.024C469.916 185.085 470.663 184.349 471.58 183.816C472.519 183.283 473.586 183.016 474.78 183.016V187.72H473.596C472.188 187.72 471.122 188.051 470.396 188.712C469.692 189.373 469.34 190.525 469.34 192.168V201H464.86V183.272H469.34V186.024ZM492.998 191.752C492.998 192.392 492.955 192.968 492.87 193.48H479.91C480.017 194.76 480.465 195.763 481.254 196.488C482.043 197.213 483.014 197.576 484.166 197.576C485.83 197.576 487.014 196.861 487.718 195.432H492.55C492.038 197.139 491.057 198.547 489.606 199.656C488.155 200.744 486.374 201.288 484.262 201.288C482.555 201.288 481.019 200.915 479.654 200.168C478.31 199.4 477.254 198.323 476.486 196.936C475.739 195.549 475.366 193.949 475.366 192.136C475.366 190.301 475.739 188.691 476.486 187.304C477.233 185.917 478.278 184.851 479.622 184.104C480.966 183.357 482.513 182.984 484.262 182.984C485.947 182.984 487.451 183.347 488.774 184.072C490.118 184.797 491.153 185.832 491.878 187.176C492.625 188.499 492.998 190.024 492.998 191.752ZM488.358 190.472C488.337 189.32 487.921 188.403 487.11 187.72C486.299 187.016 485.307 186.664 484.134 186.664C483.025 186.664 482.086 187.005 481.318 187.688C480.571 188.349 480.113 189.277 479.942 190.472H488.358ZM493.836 192.072C493.836 190.28 494.188 188.691 494.892 187.304C495.617 185.917 496.588 184.851 497.804 184.104C499.041 183.357 500.417 182.984 501.932 182.984C503.255 182.984 504.407 183.251 505.388 183.784C506.391 184.317 507.191 184.989 507.788 185.8V183.272H512.3V201H507.788V198.408C507.212 199.24 506.412 199.933 505.388 200.488C504.385 201.021 503.223 201.288 501.9 201.288C500.407 201.288 499.041 200.904 497.804 200.136C496.588 199.368 495.617 198.291 494.892 196.904C494.188 195.496 493.836 193.885 493.836 192.072ZM507.788 192.136C507.788 191.048 507.575 190.12 507.148 189.352C506.721 188.563 506.145 187.965 505.42 187.56C504.695 187.133 503.916 186.92 503.084 186.92C502.252 186.92 501.484 187.123 500.78 187.528C500.076 187.933 499.5 188.531 499.052 189.32C498.625 190.088 498.412 191.005 498.412 192.072C498.412 193.139 498.625 194.077 499.052 194.888C499.5 195.677 500.076 196.285 500.78 196.712C501.505 197.139 502.273 197.352 503.084 197.352C503.916 197.352 504.695 197.149 505.42 196.744C506.145 196.317 506.721 195.72 507.148 194.952C507.575 194.163 507.788 193.224 507.788 192.136ZM514.243 192.136C514.243 190.301 514.617 188.701 515.364 187.336C516.11 185.949 517.145 184.883 518.468 184.136C519.79 183.368 521.305 182.984 523.012 182.984C525.209 182.984 527.022 183.539 528.452 184.648C529.902 185.736 530.873 187.272 531.364 189.256H526.532C526.276 188.488 525.838 187.891 525.22 187.464C524.622 187.016 523.876 186.792 522.98 186.792C521.7 186.792 520.686 187.261 519.94 188.2C519.193 189.117 518.82 190.429 518.82 192.136C518.82 193.821 519.193 195.133 519.94 196.072C520.686 196.989 521.7 197.448 522.98 197.448C524.793 197.448 525.977 196.637 526.532 195.016H531.364C530.873 196.936 529.902 198.461 528.452 199.592C527.001 200.723 525.188 201.288 523.012 201.288C521.305 201.288 519.79 200.915 518.468 200.168C517.145 199.4 516.11 198.333 515.364 196.968C514.617 195.581 514.243 193.971 514.243 192.136ZM538.582 186.952V195.528C538.582 196.125 538.72 196.563 538.998 196.84C539.296 197.096 539.787 197.224 540.47 197.224H542.55V201H539.734C535.958 201 534.07 199.165 534.07 195.496V186.952H531.958V183.272H534.07V178.888H538.582V183.272H542.55V186.952H538.582ZM558.124 187.688V191.464H544.556V187.688H558.124ZM567.084 186.952V195.528C567.084 196.125 567.223 196.563 567.5 196.84C567.799 197.096 568.289 197.224 568.972 197.224H571.052V201H568.236C564.46 201 562.572 199.165 562.572 195.496V186.952H560.46V183.272H562.572V178.888H567.084V183.272H571.052V186.952H567.084ZM580.866 201.288C579.16 201.288 577.624 200.915 576.258 200.168C574.893 199.4 573.816 198.323 573.026 196.936C572.258 195.549 571.874 193.949 571.874 192.136C571.874 190.323 572.269 188.723 573.058 187.336C573.869 185.949 574.968 184.883 576.354 184.136C577.741 183.368 579.288 182.984 580.994 182.984C582.701 182.984 584.248 183.368 585.634 184.136C587.021 184.883 588.109 185.949 588.898 187.336C589.709 188.723 590.114 190.323 590.114 192.136C590.114 193.949 589.698 195.549 588.866 196.936C588.056 198.323 586.946 199.4 585.538 200.168C584.152 200.915 582.594 201.288 580.866 201.288ZM580.866 197.384C581.677 197.384 582.434 197.192 583.138 196.808C583.864 196.403 584.44 195.805 584.866 195.016C585.293 194.227 585.506 193.267 585.506 192.136C585.506 190.451 585.058 189.16 584.162 188.264C583.288 187.347 582.21 186.888 580.93 186.888C579.65 186.888 578.573 187.347 577.698 188.264C576.845 189.16 576.418 190.451 576.418 192.136C576.418 193.821 576.834 195.123 577.666 196.04C578.52 196.936 579.586 197.384 580.866 197.384ZM590.969 192.072C590.969 190.28 591.321 188.691 592.025 187.304C592.75 185.917 593.721 184.851 594.937 184.104C596.174 183.357 597.55 182.984 599.065 182.984C600.387 182.984 601.539 183.251 602.521 183.784C603.523 184.317 604.323 184.989 604.921 185.8V183.272H609.433V201H604.921V198.408C604.345 199.24 603.545 199.933 602.521 200.488C601.518 201.021 600.355 201.288 599.033 201.288C597.539 201.288 596.174 200.904 594.937 200.136C593.721 199.368 592.75 198.291 592.025 196.904C591.321 195.496 590.969 193.885 590.969 192.072ZM604.921 192.136C604.921 191.048 604.707 190.12 604.281 189.352C603.854 188.563 603.278 187.965 602.553 187.56C601.827 187.133 601.049 186.92 600.217 186.92C599.385 186.92 598.617 187.123 597.913 187.528C597.209 187.933 596.633 188.531 596.185 189.32C595.758 190.088 595.545 191.005 595.545 192.072C595.545 193.139 595.758 194.077 596.185 194.888C596.633 195.677 597.209 196.285 597.913 196.712C598.638 197.139 599.406 197.352 600.217 197.352C601.049 197.352 601.827 197.149 602.553 196.744C603.278 196.317 603.854 195.72 604.281 194.952C604.707 194.163 604.921 193.224 604.921 192.136ZM619.312 201.288C617.861 201.288 616.56 201.032 615.408 200.52C614.256 199.987 613.339 199.272 612.656 198.376C611.995 197.48 611.632 196.488 611.568 195.4H616.08C616.165 196.083 616.496 196.648 617.072 197.096C617.669 197.544 618.405 197.768 619.28 197.768C620.133 197.768 620.795 197.597 621.264 197.256C621.755 196.915 622 196.477 622 195.944C622 195.368 621.701 194.941 621.104 194.664C620.528 194.365 619.6 194.045 618.32 193.704C616.997 193.384 615.909 193.053 615.056 192.712C614.224 192.371 613.499 191.848 612.88 191.144C612.283 190.44 611.984 189.491 611.984 188.296C611.984 187.315 612.261 186.419 612.816 185.608C613.392 184.797 614.203 184.157 615.248 183.688C616.315 183.219 617.563 182.984 618.992 182.984C621.104 182.984 622.789 183.517 624.048 184.584C625.307 185.629 626 187.048 626.128 188.84H621.84C621.776 188.136 621.477 187.581 620.944 187.176C620.432 186.749 619.739 186.536 618.864 186.536C618.053 186.536 617.424 186.685 616.976 186.984C616.549 187.283 616.336 187.699 616.336 188.232C616.336 188.829 616.635 189.288 617.232 189.608C617.829 189.907 618.757 190.216 620.016 190.536C621.296 190.856 622.352 191.187 623.184 191.528C624.016 191.869 624.731 192.403 625.328 193.128C625.947 193.832 626.267 194.771 626.288 195.944C626.288 196.968 626 197.885 625.424 198.696C624.869 199.507 624.059 200.147 622.992 200.616C621.947 201.064 620.72 201.288 619.312 201.288ZM633.902 186.952V195.528C633.902 196.125 634.04 196.563 634.318 196.84C634.616 197.096 635.107 197.224 635.79 197.224H637.87V201H635.054C631.278 201 629.39 199.165 629.39 195.496V186.952H627.278V183.272H629.39V178.888H633.902V183.272H637.87V186.952H633.902ZM642.084 181.16C641.294 181.16 640.633 180.915 640.1 180.424C639.588 179.912 639.332 179.283 639.332 178.536C639.332 177.789 639.588 177.171 640.1 176.68C640.633 176.168 641.294 175.912 642.084 175.912C642.873 175.912 643.524 176.168 644.036 176.68C644.569 177.171 644.836 177.789 644.836 178.536C644.836 179.283 644.569 179.912 644.036 180.424C643.524 180.915 642.873 181.16 642.084 181.16ZM644.292 183.272V201H639.812V183.272H644.292ZM655.566 186.952H652.462V201H647.918V186.952H645.902V183.272H647.918V182.376C647.918 180.2 648.537 178.6 649.774 177.576C651.011 176.552 652.878 176.072 655.374 176.136V179.912C654.286 179.891 653.529 180.072 653.102 180.456C652.675 180.84 652.462 181.533 652.462 182.536V183.272H655.566V186.952ZM674.149 183.272L663.173 209.384H658.405L662.245 200.552L655.141 183.272H660.165L664.741 195.656L669.381 183.272H674.149Z" fill="#0E0E0E"/>
</svg>
