<svg width="712" height="181" viewBox="0 0 712 181" fill="none" xmlns="http://www.w3.org/2000/svg">
<path d="M182.776 44.512C183.928 42.64 185.584 41.128 187.744 39.976C189.904 38.824 192.376 38.248 195.16 38.248C198.472 38.248 201.472 39.088 204.16 40.768C206.848 42.448 208.96 44.848 210.496 47.968C212.08 51.088 212.872 54.712 212.872 58.84C212.872 62.968 212.08 66.616 210.496 69.784C208.96 72.904 206.848 75.328 204.16 77.056C201.472 78.736 198.472 79.576 195.16 79.576C192.328 79.576 189.856 79.024 187.744 77.92C185.632 76.768 183.976 75.256 182.776 73.384V79H170.464V25.72H182.776V44.512ZM200.344 58.84C200.344 55.768 199.48 53.368 197.752 51.64C196.072 49.864 193.984 48.976 191.488 48.976C189.04 48.976 186.952 49.864 185.224 51.64C183.544 53.416 182.704 55.84 182.704 58.912C182.704 61.984 183.544 64.408 185.224 66.184C186.952 67.96 189.04 68.848 191.488 68.848C193.936 68.848 196.024 67.96 197.752 66.184C199.48 64.36 200.344 61.912 200.344 58.84ZM232.075 79.576C228.571 79.576 225.451 78.976 222.715 77.776C219.979 76.576 217.819 74.944 216.235 72.88C214.651 70.768 213.763 68.416 213.571 65.824H225.739C225.883 67.216 226.531 68.344 227.683 69.208C228.835 70.072 230.251 70.504 231.931 70.504C233.467 70.504 234.643 70.216 235.459 69.64C236.323 69.016 236.755 68.224 236.755 67.264C236.755 66.112 236.155 65.272 234.955 64.744C233.755 64.168 231.811 63.544 229.123 62.872C226.243 62.2 223.843 61.504 221.923 60.784C220.003 60.016 218.347 58.84 216.955 57.256C215.563 55.624 214.867 53.44 214.867 50.704C214.867 48.4 215.491 46.312 216.739 44.44C218.035 42.52 219.907 41.008 222.355 39.904C224.851 38.8 227.803 38.248 231.211 38.248C236.251 38.248 240.211 39.496 243.091 41.992C246.019 44.488 247.699 47.8 248.131 51.928H236.755C236.563 50.536 235.939 49.432 234.883 48.616C233.875 47.8 232.531 47.392 230.851 47.392C229.411 47.392 228.307 47.68 227.539 48.256C226.771 48.784 226.387 49.528 226.387 50.488C226.387 51.64 226.987 52.504 228.187 53.08C229.435 53.656 231.355 54.232 233.947 54.808C236.923 55.576 239.347 56.344 241.219 57.112C243.091 57.832 244.723 59.032 246.115 60.712C247.555 62.344 248.299 64.552 248.347 67.336C248.347 69.688 247.675 71.8 246.331 73.672C245.035 75.496 243.139 76.936 240.643 77.992C238.195 79.048 235.339 79.576 232.075 79.576ZM283.24 48.616V58.84H251.56V48.616H283.24ZM312.837 68.56V79H306.573C302.109 79 298.629 77.92 296.133 75.76C293.637 73.552 292.389 69.976 292.389 65.032V49.048H287.493V38.824H292.389V29.032H304.701V38.824H312.765V49.048H304.701V65.176C304.701 66.376 304.989 67.24 305.565 67.768C306.141 68.296 307.101 68.56 308.445 68.56H312.837ZM334.383 79.576C330.447 79.576 326.895 78.736 323.727 77.056C320.607 75.376 318.135 72.976 316.311 69.856C314.535 66.736 313.647 63.088 313.647 58.912C313.647 54.784 314.559 51.16 316.383 48.04C318.207 44.872 320.703 42.448 323.871 40.768C327.039 39.088 330.591 38.248 334.527 38.248C338.463 38.248 342.015 39.088 345.183 40.768C348.351 42.448 350.847 44.872 352.671 48.04C354.495 51.16 355.407 54.784 355.407 58.912C355.407 63.04 354.471 66.688 352.599 69.856C350.775 72.976 348.255 75.376 345.039 77.056C341.871 78.736 338.319 79.576 334.383 79.576ZM334.383 68.92C336.735 68.92 338.727 68.056 340.359 66.328C342.039 64.6 342.879 62.128 342.879 58.912C342.879 55.696 342.063 53.224 340.431 51.496C338.847 49.768 336.879 48.904 334.527 48.904C332.127 48.904 330.135 49.768 328.551 51.496C326.967 53.176 326.175 55.648 326.175 58.912C326.175 62.128 326.943 64.6 328.479 66.328C330.063 68.056 332.031 68.92 334.383 68.92ZM355.891 58.84C355.891 54.712 356.659 51.088 358.195 47.968C359.779 44.848 361.915 42.448 364.603 40.768C367.291 39.088 370.291 38.248 373.603 38.248C376.435 38.248 378.907 38.824 381.019 39.976C383.179 41.128 384.835 42.64 385.987 44.512V38.824H398.299V79H385.987V73.312C384.787 75.184 383.107 76.696 380.947 77.848C378.835 79 376.363 79.576 373.531 79.576C370.267 79.576 367.291 78.736 364.603 77.056C361.915 75.328 359.779 72.904 358.195 69.784C356.659 66.616 355.891 62.968 355.891 58.84ZM385.987 58.912C385.987 55.84 385.123 53.416 383.395 51.64C381.715 49.864 379.651 48.976 377.203 48.976C374.755 48.976 372.667 49.864 370.939 51.64C369.259 53.368 368.419 55.768 368.419 58.84C368.419 61.912 369.259 64.36 370.939 66.184C372.667 67.96 374.755 68.848 377.203 68.848C379.651 68.848 381.715 67.96 383.395 66.184C385.123 64.408 385.987 61.984 385.987 58.912ZM419.95 79.576C416.446 79.576 413.326 78.976 410.59 77.776C407.854 76.576 405.694 74.944 404.11 72.88C402.526 70.768 401.638 68.416 401.446 65.824H413.614C413.758 67.216 414.406 68.344 415.558 69.208C416.71 70.072 418.126 70.504 419.806 70.504C421.342 70.504 422.518 70.216 423.334 69.64C424.198 69.016 424.63 68.224 424.63 67.264C424.63 66.112 424.03 65.272 422.83 64.744C421.63 64.168 419.686 63.544 416.998 62.872C414.118 62.2 411.718 61.504 409.798 60.784C407.878 60.016 406.222 58.84 404.83 57.256C403.438 55.624 402.742 53.44 402.742 50.704C402.742 48.4 403.366 46.312 404.614 44.44C405.91 42.52 407.782 41.008 410.23 39.904C412.726 38.8 415.678 38.248 419.086 38.248C424.126 38.248 428.086 39.496 430.966 41.992C433.894 44.488 435.574 47.8 436.006 51.928H424.63C424.438 50.536 423.814 49.432 422.758 48.616C421.75 47.8 420.406 47.392 418.726 47.392C417.286 47.392 416.182 47.68 415.414 48.256C414.646 48.784 414.262 49.528 414.262 50.488C414.262 51.64 414.862 52.504 416.062 53.08C417.31 53.656 419.23 54.232 421.822 54.808C424.798 55.576 427.222 56.344 429.094 57.112C430.966 57.832 432.598 59.032 433.99 60.712C435.43 62.344 436.174 64.552 436.222 67.336C436.222 69.688 435.55 71.8 434.206 73.672C432.91 75.496 431.014 76.936 428.518 77.992C426.07 79.048 423.214 79.576 419.95 79.576ZM462.547 68.56V79H456.283C451.819 79 448.339 77.92 445.843 75.76C443.347 73.552 442.099 69.976 442.099 65.032V49.048H437.203V38.824H442.099V29.032H454.411V38.824H462.475V49.048H454.411V65.176C454.411 66.376 454.699 67.24 455.275 67.768C455.851 68.296 456.811 68.56 458.155 68.56H462.547ZM471.997 34.648C469.837 34.648 468.061 34.024 466.669 32.776C465.325 31.48 464.653 29.896 464.653 28.024C464.653 26.104 465.325 24.52 466.669 23.272C468.061 21.976 469.837 21.328 471.997 21.328C474.109 21.328 475.837 21.976 477.181 23.272C478.573 24.52 479.269 26.104 479.269 28.024C479.269 29.896 478.573 31.48 477.181 32.776C475.837 34.024 474.109 34.648 471.997 34.648ZM478.117 38.824V79H465.805V38.824H478.117ZM503.599 49.048H496.975V79H484.663V49.048H480.199V38.824H484.663V37.672C484.663 32.728 486.079 28.984 488.911 26.44C491.743 23.848 495.895 22.552 501.367 22.552C502.279 22.552 502.951 22.576 503.383 22.624V33.064C501.031 32.92 499.375 33.256 498.415 34.072C497.455 34.888 496.975 36.352 496.975 38.464V38.824H503.599V49.048ZM546.824 38.824L521.624 98.08H508.376L517.592 77.632L501.248 38.824H515L524.288 63.952L533.504 38.824H546.824Z" fill="#FFDD65"/>
<path d="M42.3561 165L35.6361 153.324H31.9821V165H27.1941V135.81H37.2741C39.5141 135.81 41.4041 136.202 42.9441 136.986C44.5121 137.77 45.6741 138.82 46.4301 140.136C47.2141 141.452 47.6061 142.922 47.6061 144.546C47.6061 146.45 47.0461 148.186 45.9261 149.754C44.8341 151.294 43.1401 152.344 40.8441 152.904L48.0681 165H42.3561ZM31.9821 149.502H37.2741C39.0661 149.502 40.4101 149.054 41.3061 148.158C42.2301 147.262 42.6921 146.058 42.6921 144.546C42.6921 143.034 42.2441 141.858 41.3481 141.018C40.4521 140.15 39.0941 139.716 37.2741 139.716H31.9821V149.502ZM71.5812 152.862C71.5812 153.73 71.5252 154.514 71.4132 155.214H53.7312C53.8712 157.062 54.5572 158.546 55.7892 159.666C57.0212 160.786 58.5332 161.346 60.3252 161.346C62.9012 161.346 64.7212 160.268 65.7852 158.112H70.9512C70.2512 160.24 68.9772 161.99 67.1292 163.362C65.3092 164.706 63.0412 165.378 60.3252 165.378C58.1132 165.378 56.1252 164.888 54.3612 163.908C52.6252 162.9 51.2532 161.5 50.2452 159.708C49.2652 157.888 48.7752 155.788 48.7752 153.408C48.7752 151.028 49.2512 148.942 50.2032 147.15C51.1832 145.33 52.5412 143.93 54.2772 142.95C56.0412 141.97 58.0572 141.48 60.3252 141.48C62.5092 141.48 64.4552 141.956 66.1632 142.908C67.8712 143.86 69.2012 145.204 70.1532 146.94C71.1052 148.648 71.5812 150.622 71.5812 152.862ZM66.5832 151.35C66.5552 149.586 65.9252 148.172 64.6932 147.108C63.4612 146.044 61.9352 145.512 60.1152 145.512C58.4632 145.512 57.0492 146.044 55.8732 147.108C54.6972 148.144 53.9972 149.558 53.7732 151.35H66.5832ZM71.3371 153.324C71.3371 151 71.8131 148.942 72.7651 147.15C73.7451 145.358 75.0611 143.972 76.7131 142.992C78.3931 141.984 80.2411 141.48 82.2571 141.48C84.0771 141.48 85.6591 141.844 87.0031 142.572C88.3751 143.272 89.4671 144.154 90.2791 145.218V141.858H95.1091V165H90.2791V161.556C89.4671 162.648 88.3611 163.558 86.9611 164.286C85.5611 165.014 83.9651 165.378 82.1731 165.378C80.1851 165.378 78.3651 164.874 76.7131 163.866C75.0611 162.83 73.7451 161.402 72.7651 159.582C71.8131 157.734 71.3371 155.648 71.3371 153.324ZM90.2791 153.408C90.2791 151.812 89.9431 150.426 89.2711 149.25C88.6271 148.074 87.7731 147.178 86.7091 146.562C85.6451 145.946 84.4971 145.638 83.2651 145.638C82.0331 145.638 80.8851 145.946 79.8211 146.562C78.7571 147.15 77.8891 148.032 77.2171 149.208C76.5731 150.356 76.2511 151.728 76.2511 153.324C76.2511 154.92 76.5731 156.32 77.2171 157.524C77.8891 158.728 78.7571 159.652 79.8211 160.296C80.9131 160.912 82.0611 161.22 83.2651 161.22C84.4971 161.22 85.6451 160.912 86.7091 160.296C87.7731 159.68 88.6271 158.784 89.2711 157.608C89.9431 156.404 90.2791 155.004 90.2791 153.408ZM106.438 165.378C104.618 165.378 102.98 165.056 101.524 164.412C100.096 163.74 98.962 162.844 98.122 161.724C97.282 160.576 96.834 159.302 96.778 157.902H101.734C101.818 158.882 102.28 159.708 103.12 160.38C103.988 161.024 105.066 161.346 106.354 161.346C107.698 161.346 108.734 161.094 109.462 160.59C110.218 160.058 110.596 159.386 110.596 158.574C110.596 157.706 110.176 157.062 109.336 156.642C108.524 156.222 107.222 155.76 105.43 155.256C103.694 154.78 102.28 154.318 101.188 153.87C100.096 153.422 99.144 152.736 98.332 151.812C97.548 150.888 97.156 149.67 97.156 148.158C97.156 146.926 97.52 145.806 98.248 144.798C98.976 143.762 100.012 142.95 101.356 142.362C102.728 141.774 104.296 141.48 106.06 141.48C108.692 141.48 110.806 142.152 112.402 143.496C114.026 144.812 114.894 146.618 115.006 148.914H110.218C110.134 147.878 109.714 147.052 108.958 146.436C108.202 145.82 107.18 145.512 105.892 145.512C104.632 145.512 103.666 145.75 102.994 146.226C102.322 146.702 101.986 147.332 101.986 148.116C101.986 148.732 102.21 149.25 102.658 149.67C103.106 150.09 103.652 150.426 104.296 150.678C104.94 150.902 105.892 151.196 107.152 151.56C108.832 152.008 110.204 152.47 111.268 152.946C112.36 153.394 113.298 154.066 114.082 154.962C114.866 155.858 115.272 157.048 115.3 158.532C115.3 159.848 114.936 161.024 114.208 162.06C113.48 163.096 112.444 163.908 111.1 164.496C109.784 165.084 108.23 165.378 106.438 165.378ZM127.152 165.378C124.968 165.378 122.994 164.888 121.23 163.908C119.466 162.9 118.08 161.5 117.072 159.708C116.064 157.888 115.56 155.788 115.56 153.408C115.56 151.056 116.078 148.97 117.114 147.15C118.15 145.33 119.564 143.93 121.356 142.95C123.148 141.97 125.15 141.48 127.362 141.48C129.574 141.48 131.576 141.97 133.368 142.95C135.16 143.93 136.574 145.33 137.61 147.15C138.646 148.97 139.164 151.056 139.164 153.408C139.164 155.76 138.632 157.846 137.568 159.666C136.504 161.486 135.048 162.9 133.2 163.908C131.38 164.888 129.364 165.378 127.152 165.378ZM127.152 161.22C128.384 161.22 129.532 160.926 130.596 160.338C131.688 159.75 132.57 158.868 133.242 157.692C133.914 156.516 134.25 155.088 134.25 153.408C134.25 151.728 133.928 150.314 133.284 149.166C132.64 147.99 131.786 147.108 130.722 146.52C129.658 145.932 128.51 145.638 127.278 145.638C126.046 145.638 124.898 145.932 123.834 146.52C122.798 147.108 121.972 147.99 121.356 149.166C120.74 150.314 120.432 151.728 120.432 153.408C120.432 155.9 121.062 157.832 122.322 159.204C123.61 160.548 125.22 161.22 127.152 161.22ZM152.213 141.48C154.033 141.48 155.657 141.858 157.085 142.614C158.541 143.37 159.675 144.49 160.487 145.974C161.299 147.458 161.705 149.25 161.705 151.35V165H156.959V152.064C156.959 149.992 156.441 148.41 155.405 147.318C154.369 146.198 152.955 145.638 151.163 145.638C149.371 145.638 147.943 146.198 146.879 147.318C145.843 148.41 145.325 149.992 145.325 152.064V165H140.537V141.858H145.325V144.504C146.109 143.552 147.103 142.81 148.307 142.278C149.539 141.746 150.841 141.48 152.213 141.48ZM195.196 135.81V165H190.408V145.008L181.504 165H178.186L169.24 145.008V165H164.452V135.81H169.618L179.866 158.7L190.072 135.81H195.196ZM202.917 161.136H212.787V165H198.129V135.81H202.917V161.136ZM225.769 145.302C226.581 144.182 227.687 143.272 229.087 142.572C230.515 141.844 232.097 141.48 233.833 141.48C235.877 141.48 237.725 141.97 239.377 142.95C241.029 143.93 242.331 145.33 243.283 147.15C244.235 148.942 244.711 151 244.711 153.324C244.711 155.648 244.235 157.734 243.283 159.582C242.331 161.402 241.015 162.83 239.335 163.866C237.683 164.874 235.849 165.378 233.833 165.378C232.041 165.378 230.445 165.028 229.045 164.328C227.673 163.628 226.581 162.732 225.769 161.64V165H220.981V133.92H225.769V145.302ZM239.839 153.324C239.839 151.728 239.503 150.356 238.831 149.208C238.187 148.032 237.319 147.15 236.227 146.562C235.163 145.946 234.015 145.638 232.783 145.638C231.579 145.638 230.431 145.946 229.339 146.562C228.275 147.178 227.407 148.074 226.735 149.25C226.091 150.426 225.769 151.812 225.769 153.408C225.769 155.004 226.091 156.404 226.735 157.608C227.407 158.784 228.275 159.68 229.339 160.296C230.431 160.912 231.579 161.22 232.783 161.22C234.015 161.22 235.163 160.912 236.227 160.296C237.319 159.652 238.187 158.728 238.831 157.524C239.503 156.32 239.839 154.92 239.839 153.324ZM248.522 138.792C247.654 138.792 246.926 138.498 246.338 137.91C245.75 137.322 245.456 136.594 245.456 135.726C245.456 134.858 245.75 134.13 246.338 133.542C246.926 132.954 247.654 132.66 248.522 132.66C249.362 132.66 250.076 132.954 250.664 133.542C251.252 134.13 251.546 134.858 251.546 135.726C251.546 136.594 251.252 137.322 250.664 137.91C250.076 138.498 249.362 138.792 248.522 138.792ZM250.874 141.858V165H246.086V141.858H250.874ZM265.477 141.48C267.297 141.48 268.921 141.858 270.349 142.614C271.805 143.37 272.939 144.49 273.751 145.974C274.563 147.458 274.969 149.25 274.969 151.35V165H270.223V152.064C270.223 149.992 269.705 148.41 268.669 147.318C267.633 146.198 266.219 145.638 264.427 145.638C262.635 145.638 261.207 146.198 260.143 147.318C259.107 148.41 258.589 149.992 258.589 152.064V165H253.801V141.858H258.589V144.504C259.373 143.552 260.367 142.81 261.571 142.278C262.803 141.746 264.105 141.48 265.477 141.48ZM276.12 153.324C276.12 151 276.596 148.942 277.548 147.15C278.528 145.358 279.844 143.972 281.496 142.992C283.176 141.984 285.038 141.48 287.082 141.48C288.594 141.48 290.078 141.816 291.534 142.488C293.018 143.132 294.194 144 295.062 145.092V133.92H299.892V165H295.062V161.514C294.278 162.634 293.186 163.558 291.786 164.286C290.414 165.014 288.832 165.378 287.04 165.378C285.024 165.378 283.176 164.874 281.496 163.866C279.844 162.83 278.528 161.402 277.548 159.582C276.596 157.734 276.12 155.648 276.12 153.324ZM295.062 153.408C295.062 151.812 294.726 150.426 294.054 149.25C293.41 148.074 292.556 147.178 291.492 146.562C290.428 145.946 289.28 145.638 288.048 145.638C286.816 145.638 285.668 145.946 284.604 146.562C283.54 147.15 282.672 148.032 282 149.208C281.356 150.356 281.034 151.728 281.034 153.324C281.034 154.92 281.356 156.32 282 157.524C282.672 158.728 283.54 159.652 284.604 160.296C285.696 160.912 286.844 161.22 288.048 161.22C289.28 161.22 290.428 160.912 291.492 160.296C292.556 159.68 293.41 158.784 294.054 157.608C294.726 156.404 295.062 155.004 295.062 153.408ZM305.257 138.792C304.389 138.792 303.661 138.498 303.073 137.91C302.485 137.322 302.191 136.594 302.191 135.726C302.191 134.858 302.485 134.13 303.073 133.542C303.661 132.954 304.389 132.66 305.257 132.66C306.097 132.66 306.811 132.954 307.399 133.542C307.987 134.13 308.281 134.858 308.281 135.726C308.281 136.594 307.987 137.322 307.399 137.91C306.811 138.498 306.097 138.792 305.257 138.792ZM307.609 141.858V165H302.821V141.858H307.609ZM322.211 141.48C324.031 141.48 325.655 141.858 327.083 142.614C328.539 143.37 329.673 144.49 330.485 145.974C331.297 147.458 331.703 149.25 331.703 151.35V165H326.957V152.064C326.957 149.992 326.439 148.41 325.403 147.318C324.367 146.198 322.953 145.638 321.161 145.638C319.369 145.638 317.941 146.198 316.877 147.318C315.841 148.41 315.323 149.992 315.323 152.064V165H310.535V141.858H315.323V144.504C316.107 143.552 317.101 142.81 318.305 142.278C319.537 141.746 320.839 141.48 322.211 141.48ZM343.774 141.48C345.566 141.48 347.148 141.844 348.52 142.572C349.92 143.272 351.012 144.154 351.796 145.218V141.858H356.626V165.378C356.626 167.506 356.178 169.396 355.282 171.048C354.386 172.728 353.084 174.044 351.376 174.996C349.696 175.948 347.68 176.424 345.328 176.424C342.192 176.424 339.588 175.682 337.516 174.198C335.444 172.742 334.268 170.754 333.988 168.234H338.734C339.098 169.438 339.868 170.404 341.044 171.132C342.248 171.888 343.676 172.266 345.328 172.266C347.26 172.266 348.814 171.678 349.99 170.502C351.194 169.326 351.796 167.618 351.796 165.378V161.514C350.984 162.606 349.878 163.53 348.478 164.286C347.106 165.014 345.538 165.378 343.774 165.378C341.758 165.378 339.91 164.874 338.23 163.866C336.578 162.83 335.262 161.402 334.282 159.582C333.33 157.734 332.854 155.648 332.854 153.324C332.854 151 333.33 148.942 334.282 147.15C335.262 145.358 336.578 143.972 338.23 142.992C339.91 141.984 341.758 141.48 343.774 141.48ZM351.796 153.408C351.796 151.812 351.46 150.426 350.788 149.25C350.144 148.074 349.29 147.178 348.226 146.562C347.162 145.946 346.014 145.638 344.782 145.638C343.55 145.638 342.402 145.946 341.338 146.562C340.274 147.15 339.406 148.032 338.734 149.208C338.09 150.356 337.768 151.728 337.768 153.324C337.768 154.92 338.09 156.32 338.734 157.524C339.406 158.728 340.274 159.652 341.338 160.296C342.43 160.912 343.578 161.22 344.782 161.22C346.014 161.22 347.162 160.912 348.226 160.296C349.29 159.68 350.144 158.784 350.788 157.608C351.46 156.404 351.796 155.004 351.796 153.408ZM367.955 165.378C366.135 165.378 364.497 165.056 363.041 164.412C361.613 163.74 360.479 162.844 359.639 161.724C358.799 160.576 358.351 159.302 358.295 157.902H363.251C363.335 158.882 363.797 159.708 364.637 160.38C365.505 161.024 366.583 161.346 367.871 161.346C369.215 161.346 370.251 161.094 370.979 160.59C371.735 160.058 372.113 159.386 372.113 158.574C372.113 157.706 371.693 157.062 370.853 156.642C370.041 156.222 368.739 155.76 366.947 155.256C365.211 154.78 363.797 154.318 362.705 153.87C361.613 153.422 360.661 152.736 359.849 151.812C359.065 150.888 358.673 149.67 358.673 148.158C358.673 146.926 359.037 145.806 359.765 144.798C360.493 143.762 361.529 142.95 362.873 142.362C364.245 141.774 365.813 141.48 367.577 141.48C370.209 141.48 372.323 142.152 373.919 143.496C375.543 144.812 376.411 146.618 376.523 148.914H371.735C371.651 147.878 371.231 147.052 370.475 146.436C369.719 145.82 368.697 145.512 367.409 145.512C366.149 145.512 365.183 145.75 364.511 146.226C363.839 146.702 363.503 147.332 363.503 148.116C363.503 148.732 363.727 149.25 364.175 149.67C364.623 150.09 365.169 150.426 365.813 150.678C366.457 150.902 367.409 151.196 368.669 151.56C370.349 152.008 371.721 152.47 372.785 152.946C373.877 153.394 374.815 154.066 375.599 154.962C376.383 155.858 376.789 157.048 376.817 158.532C376.817 159.848 376.453 161.024 375.725 162.06C374.997 163.096 373.961 163.908 372.617 164.496C371.301 165.084 369.747 165.378 367.955 165.378ZM395.883 145.764H391.599V165H386.769V145.764H384.039V141.858H386.769V140.22C386.769 137.56 387.469 135.628 388.869 134.424C390.297 133.192 392.523 132.576 395.547 132.576V136.566C394.091 136.566 393.069 136.846 392.481 137.406C391.893 137.938 391.599 138.876 391.599 140.22V141.858H395.883V145.764ZM406.804 165.378C404.62 165.378 402.646 164.888 400.882 163.908C399.118 162.9 397.732 161.5 396.724 159.708C395.716 157.888 395.212 155.788 395.212 153.408C395.212 151.056 395.73 148.97 396.766 147.15C397.802 145.33 399.216 143.93 401.008 142.95C402.8 141.97 404.802 141.48 407.014 141.48C409.226 141.48 411.228 141.97 413.02 142.95C414.812 143.93 416.226 145.33 417.262 147.15C418.298 148.97 418.816 151.056 418.816 153.408C418.816 155.76 418.284 157.846 417.22 159.666C416.156 161.486 414.7 162.9 412.852 163.908C411.032 164.888 409.016 165.378 406.804 165.378ZM406.804 161.22C408.036 161.22 409.184 160.926 410.248 160.338C411.34 159.75 412.222 158.868 412.894 157.692C413.566 156.516 413.902 155.088 413.902 153.408C413.902 151.728 413.58 150.314 412.936 149.166C412.292 147.99 411.438 147.108 410.374 146.52C409.31 145.932 408.162 145.638 406.93 145.638C405.698 145.638 404.55 145.932 403.486 146.52C402.45 147.108 401.624 147.99 401.008 149.166C400.392 150.314 400.084 151.728 400.084 153.408C400.084 155.9 400.714 157.832 401.974 159.204C403.262 160.548 404.872 161.22 406.804 161.22ZM424.977 145.218C425.677 144.042 426.601 143.132 427.749 142.488C428.925 141.816 430.311 141.48 431.907 141.48V146.436H430.689C428.813 146.436 427.385 146.912 426.405 147.864C425.453 148.816 424.977 150.468 424.977 152.82V165H420.189V141.858H424.977V145.218ZM445.287 145.218C445.987 144.042 446.911 143.132 448.059 142.488C449.235 141.816 450.621 141.48 452.217 141.48V146.436H450.999C449.123 146.436 447.695 146.912 446.715 147.864C445.763 148.816 445.287 150.468 445.287 152.82V165H440.499V141.858H445.287V145.218ZM474.468 152.862C474.468 153.73 474.412 154.514 474.3 155.214H456.618C456.758 157.062 457.444 158.546 458.676 159.666C459.908 160.786 461.42 161.346 463.212 161.346C465.788 161.346 467.608 160.268 468.672 158.112H473.838C473.138 160.24 471.864 161.99 470.016 163.362C468.196 164.706 465.928 165.378 463.212 165.378C461 165.378 459.012 164.888 457.248 163.908C455.512 162.9 454.14 161.5 453.132 159.708C452.152 157.888 451.662 155.788 451.662 153.408C451.662 151.028 452.138 148.942 453.09 147.15C454.07 145.33 455.428 143.93 457.164 142.95C458.928 141.97 460.944 141.48 463.212 141.48C465.396 141.48 467.342 141.956 469.05 142.908C470.758 143.86 472.088 145.204 473.04 146.94C473.992 148.648 474.468 150.622 474.468 152.862ZM469.47 151.35C469.442 149.586 468.812 148.172 467.58 147.108C466.348 146.044 464.822 145.512 463.002 145.512C461.35 145.512 459.936 146.044 458.76 147.108C457.584 148.144 456.884 149.558 456.66 151.35H469.47ZM474.224 153.324C474.224 151 474.7 148.942 475.652 147.15C476.632 145.358 477.948 143.972 479.6 142.992C481.28 141.984 483.128 141.48 485.144 141.48C486.964 141.48 488.546 141.844 489.89 142.572C491.262 143.272 492.354 144.154 493.166 145.218V141.858H497.996V165H493.166V161.556C492.354 162.648 491.248 163.558 489.848 164.286C488.448 165.014 486.852 165.378 485.06 165.378C483.072 165.378 481.252 164.874 479.6 163.866C477.948 162.83 476.632 161.402 475.652 159.582C474.7 157.734 474.224 155.648 474.224 153.324ZM493.166 153.408C493.166 151.812 492.83 150.426 492.158 149.25C491.514 148.074 490.66 147.178 489.596 146.562C488.532 145.946 487.384 145.638 486.152 145.638C484.92 145.638 483.772 145.946 482.708 146.562C481.644 147.15 480.776 148.032 480.104 149.208C479.46 150.356 479.138 151.728 479.138 153.324C479.138 154.92 479.46 156.32 480.104 157.524C480.776 158.728 481.644 159.652 482.708 160.296C483.8 160.912 484.948 161.22 486.152 161.22C487.384 161.22 488.532 160.912 489.596 160.296C490.66 159.68 491.514 158.784 492.158 157.608C492.83 156.404 493.166 155.004 493.166 153.408ZM499.329 153.408C499.329 151.028 499.805 148.942 500.757 147.15C501.737 145.33 503.081 143.93 504.789 142.95C506.497 141.97 508.457 141.48 510.669 141.48C513.469 141.48 515.779 142.152 517.599 143.496C519.447 144.812 520.693 146.702 521.337 149.166H516.171C515.751 148.018 515.079 147.122 514.155 146.478C513.231 145.834 512.069 145.512 510.669 145.512C508.709 145.512 507.141 146.212 505.965 147.612C504.817 148.984 504.243 150.916 504.243 153.408C504.243 155.9 504.817 157.846 505.965 159.246C507.141 160.646 508.709 161.346 510.669 161.346C513.441 161.346 515.275 160.128 516.171 157.692H521.337C520.665 160.044 519.405 161.92 517.557 163.32C515.709 164.692 513.413 165.378 510.669 165.378C508.457 165.378 506.497 164.888 504.789 163.908C503.081 162.9 501.737 161.5 500.757 159.708C499.805 157.888 499.329 155.788 499.329 153.408ZM528.334 145.764V158.574C528.334 159.442 528.53 160.072 528.922 160.464C529.342 160.828 530.042 161.01 531.022 161.01H533.962V165H530.182C528.026 165 526.374 164.496 525.226 163.488C524.078 162.48 523.504 160.842 523.504 158.574V145.764H520.774V141.858H523.504V136.104H528.334V141.858H533.962V145.764H528.334ZM552.781 147.78V151.812H535.519V147.78H552.781ZM561.809 145.764V158.574C561.809 159.442 562.005 160.072 562.397 160.464C562.817 160.828 563.517 161.01 564.497 161.01H567.437V165H563.657C561.501 165 559.849 164.496 558.701 163.488C557.553 162.48 556.979 160.842 556.979 158.574V145.764H554.249V141.858H556.979V136.104H561.809V141.858H567.437V145.764H561.809ZM578.528 165.378C576.344 165.378 574.37 164.888 572.606 163.908C570.842 162.9 569.456 161.5 568.448 159.708C567.44 157.888 566.936 155.788 566.936 153.408C566.936 151.056 567.454 148.97 568.49 147.15C569.526 145.33 570.94 143.93 572.732 142.95C574.524 141.97 576.526 141.48 578.738 141.48C580.95 141.48 582.952 141.97 584.744 142.95C586.536 143.93 587.95 145.33 588.986 147.15C590.022 148.97 590.54 151.056 590.54 153.408C590.54 155.76 590.008 157.846 588.944 159.666C587.88 161.486 586.424 162.9 584.576 163.908C582.756 164.888 580.74 165.378 578.528 165.378ZM578.528 161.22C579.76 161.22 580.908 160.926 581.972 160.338C583.064 159.75 583.946 158.868 584.618 157.692C585.29 156.516 585.626 155.088 585.626 153.408C585.626 151.728 585.304 150.314 584.66 149.166C584.016 147.99 583.162 147.108 582.098 146.52C581.034 145.932 579.886 145.638 578.654 145.638C577.422 145.638 576.274 145.932 575.21 146.52C574.174 147.108 573.348 147.99 572.732 149.166C572.116 150.314 571.808 151.728 571.808 153.408C571.808 155.9 572.438 157.832 573.698 159.204C574.986 160.548 576.596 161.22 578.528 161.22ZM590.318 153.324C590.318 151 590.794 148.942 591.746 147.15C592.726 145.358 594.042 143.972 595.694 142.992C597.374 141.984 599.222 141.48 601.238 141.48C603.058 141.48 604.64 141.844 605.984 142.572C607.356 143.272 608.448 144.154 609.26 145.218V141.858H614.09V165H609.26V161.556C608.448 162.648 607.342 163.558 605.942 164.286C604.542 165.014 602.946 165.378 601.154 165.378C599.166 165.378 597.346 164.874 595.694 163.866C594.042 162.83 592.726 161.402 591.746 159.582C590.794 157.734 590.318 155.648 590.318 153.324ZM609.26 153.408C609.26 151.812 608.924 150.426 608.252 149.25C607.608 148.074 606.754 147.178 605.69 146.562C604.626 145.946 603.478 145.638 602.246 145.638C601.014 145.638 599.866 145.946 598.802 146.562C597.738 147.15 596.87 148.032 596.198 149.208C595.554 150.356 595.232 151.728 595.232 153.324C595.232 154.92 595.554 156.32 596.198 157.524C596.87 158.728 597.738 159.652 598.802 160.296C599.894 160.912 601.042 161.22 602.246 161.22C603.478 161.22 604.626 160.912 605.69 160.296C606.754 159.68 607.608 158.784 608.252 157.608C608.924 156.404 609.26 155.004 609.26 153.408ZM625.419 165.378C623.599 165.378 621.961 165.056 620.505 164.412C619.077 163.74 617.943 162.844 617.103 161.724C616.263 160.576 615.815 159.302 615.759 157.902H620.715C620.799 158.882 621.261 159.708 622.101 160.38C622.969 161.024 624.047 161.346 625.335 161.346C626.679 161.346 627.715 161.094 628.443 160.59C629.199 160.058 629.577 159.386 629.577 158.574C629.577 157.706 629.157 157.062 628.317 156.642C627.505 156.222 626.203 155.76 624.411 155.256C622.675 154.78 621.261 154.318 620.169 153.87C619.077 153.422 618.125 152.736 617.313 151.812C616.529 150.888 616.137 149.67 616.137 148.158C616.137 146.926 616.501 145.806 617.229 144.798C617.957 143.762 618.993 142.95 620.337 142.362C621.709 141.774 623.277 141.48 625.041 141.48C627.673 141.48 629.787 142.152 631.383 143.496C633.007 144.812 633.875 146.618 633.987 148.914H629.199C629.115 147.878 628.695 147.052 627.939 146.436C627.183 145.82 626.161 145.512 624.873 145.512C623.613 145.512 622.647 145.75 621.975 146.226C621.303 146.702 620.967 147.332 620.967 148.116C620.967 148.732 621.191 149.25 621.639 149.67C622.087 150.09 622.633 150.426 623.277 150.678C623.921 150.902 624.873 151.196 626.133 151.56C627.813 152.008 629.185 152.47 630.249 152.946C631.341 153.394 632.279 154.066 633.063 154.962C633.847 155.858 634.253 157.048 634.281 158.532C634.281 159.848 633.917 161.024 633.189 162.06C632.461 163.096 631.425 163.908 630.081 164.496C628.765 165.084 627.211 165.378 625.419 165.378ZM641.68 145.764V158.574C641.68 159.442 641.876 160.072 642.268 160.464C642.688 160.828 643.388 161.01 644.368 161.01H647.308V165H643.528C641.372 165 639.72 164.496 638.572 163.488C637.424 162.48 636.85 160.842 636.85 158.574V145.764H634.12V141.858H636.85V136.104H641.68V141.858H647.308V145.764H641.68ZM650.797 138.792C649.929 138.792 649.201 138.498 648.613 137.91C648.025 137.322 647.731 136.594 647.731 135.726C647.731 134.858 648.025 134.13 648.613 133.542C649.201 132.954 649.929 132.66 650.797 132.66C651.637 132.66 652.351 132.954 652.939 133.542C653.527 134.13 653.821 134.858 653.821 135.726C653.821 136.594 653.527 137.322 652.939 137.91C652.351 138.498 651.637 138.792 650.797 138.792ZM653.149 141.858V165H648.361V141.858H653.149ZM665.777 145.764H661.493V165H656.663V145.764H653.933V141.858H656.663V140.22C656.663 137.56 657.363 135.628 658.763 134.424C660.191 133.192 662.417 132.576 665.441 132.576V136.566C663.985 136.566 662.963 136.846 662.375 137.406C661.787 137.938 661.493 138.876 661.493 140.22V141.858H665.777V145.764ZM687.493 141.858L673.297 175.878H668.341L673.045 164.622L663.931 141.858H669.265L675.775 159.498L682.537 141.858H687.493Z" fill="#01071A"/>
</svg>
